<svg width="20" height="20" viewBox="0 0 20 20" fill="none" xmlns="http://www.w3.org/2000/svg">
<path fill-rule="evenodd" clip-rule="evenodd" d="M0.833496 14.1667V3.33337H15.8335V14.1667H0.833496ZM10.4168 8.75004C10.4168 9.30258 10.1973 9.83248 9.80664 10.2232C9.41594 10.6139 8.88603 10.8334 8.3335 10.8334C7.78096 10.8334 7.25106 10.6139 6.86036 10.2232C6.46966 9.83248 6.25016 9.30258 6.25016 8.75004C6.25016 8.19751 6.46966 7.6676 6.86036 7.2769C7.25106 6.8862 7.78096 6.66671 8.3335 6.66671C8.88603 6.66671 9.41594 6.8862 9.80664 7.2769C10.1973 7.6676 10.4168 8.19751 10.4168 8.75004ZM19.1668 16.6667V6.66671H17.5002V15.8334H4.16683V17.5H19.1668V16.6667Z" fill="#0047BA"/>
</svg>
