<svg width="65" height="64" viewBox="0 0 65 64" fill="none" xmlns="http://www.w3.org/2000/svg">
<path fill-rule="evenodd" clip-rule="evenodd" d="M7.25 0H57.25V64H50.25V60H53.25V4H11.25V60H16.25V64H7.25V0Z" fill="#0047BA"/>
<path fill-rule="evenodd" clip-rule="evenodd" d="M21.25 40H43.25V62H39.25V44H25.25V62H21.25V40Z" fill="#0047BA"/>
<path fill-rule="evenodd" clip-rule="evenodd" d="M24.25 15H16.25V11H24.25V15ZM36.25 15H28.25V11H36.25V15ZM48.25 15H40.25V11H48.25V15ZM24.25 24H16.25V20H24.25V24ZM36.25 24H28.25V20H36.25V24ZM48.25 24H40.25V20H48.25V24ZM24.25 33H16.25V29H24.25V33ZM36.25 33H28.25V29H36.25V33ZM48.25 33H40.25V29H48.25V33Z" fill="#0047BA"/>
<path fill-rule="evenodd" clip-rule="evenodd" d="M64.25 64L0.25 64L0.25 60L64.25 60V64Z" fill="#0047BA"/>
</svg>
