<svg width="20" height="20" viewBox="0 0 20 20" fill="none" xmlns="http://www.w3.org/2000/svg">
<g clip-path="url(#clip0_259_8396)">
<path fill-rule="evenodd" clip-rule="evenodd" d="M0.833496 0.833374H19.1668V19.1667H0.833496V0.833374ZM2.50016 13.9584V17.5H17.5002V13.9584H2.50016ZM17.5002 12.2917H6.87516L12.5002 6.66671L17.5002 11.6667V12.2917ZM5.41683 3.54171C4.91955 3.54171 4.44264 3.73925 4.091 4.09088C3.73937 4.44251 3.54183 4.91943 3.54183 5.41671C3.54183 5.91399 3.73937 6.3909 4.091 6.74253C4.44264 7.09416 4.91955 7.29171 5.41683 7.29171C5.91411 7.29171 6.39102 7.09416 6.74265 6.74253C7.09429 6.3909 7.29183 5.91399 7.29183 5.41671C7.29183 4.91943 7.09429 4.44251 6.74265 4.09088C6.39102 3.73925 5.91411 3.54171 5.41683 3.54171Z" fill="#0047BA"/>
</g>
<defs>
<clipPath id="clip0_259_8396">
<rect width="20" height="20" fill="white"/>
</clipPath>
</defs>
</svg>
