<svg width="64" height="64" viewBox="0 0 64 64" fill="none" xmlns="http://www.w3.org/2000/svg">
<path fill-rule="evenodd" clip-rule="evenodd" d="M31.9998 0L63.983 18.055L62.0166 21.5383L31.9998 4.59335L1.98298 21.5383L0.0166016 18.055L31.9998 0ZM0 48.7966C9.7309 48.7966 17.499 50.7426 22.8165 52.6762C25.4754 53.6431 27.5197 54.6063 28.8874 55.3198C29.571 55.6765 30.0851 55.9705 30.4217 56.1711C30.59 56.2713 30.7139 56.3482 30.7924 56.3978L30.8361 56.4256L30.8759 56.4512L30.8906 56.4607L30.8917 56.4615L30.8919 56.4616L30.8926 56.462L30.8934 56.4626L32 57.2003L33.1066 56.4626L33.1074 56.462L33.1081 56.4616L33.1083 56.4615L33.1094 56.4607L33.1241 56.4512C33.1405 56.4405 33.1684 56.4226 33.2076 56.3978C33.2861 56.3482 33.41 56.2713 33.5783 56.1711C33.9149 55.9705 34.429 55.6765 35.1126 55.3198C36.4803 54.6063 38.5246 53.6431 41.1835 52.6762C46.501 50.7426 54.2691 48.7966 64 48.7966V44.7966C53.7309 44.7966 45.499 46.8507 39.8165 48.917C36.9754 49.9502 34.7697 50.987 33.2624 51.7735C32.765 52.0329 32.3435 52.2653 32 52.4614C31.6565 52.2653 31.235 52.0329 30.7376 51.7735C29.2303 50.987 27.0246 49.9502 24.1835 48.917C18.501 46.8507 10.2691 44.7966 0 44.7966V48.7966ZM0 59.7966V63.7966H64V59.7966H0ZM16 41.7966V20.7966H12V41.7966H16ZM25 41.7966V20.7966H21V41.7966H25ZM34 41.7966V20.7966H30V41.7966H34ZM43 41.7966V20.7966H39V41.7966H43ZM52 41.7966V20.7966H48V41.7966H52Z" fill="#0047BA"/>
</svg>
