<svg width="20" height="20" viewBox="0 0 20 20" fill="none" xmlns="http://www.w3.org/2000/svg">
<path fill-rule="evenodd" clip-rule="evenodd" d="M15.0002 11.6667C15.0002 11.6667 18.7502 7.03337 18.7502 4.58337C18.7502 2.65004 16.9335 0.833374 15.0002 0.833374C13.0668 0.833374 11.2502 2.65004 11.2502 4.58337C11.2502 7.03337 15.0002 11.6667 15.0002 11.6667ZM0.833496 2.50004H10.5043C10.177 3.14598 10.0044 3.85923 10.0002 4.58337C10.0002 4.99254 10.0702 5.41504 10.1818 5.83337H3.3335V7.50004H10.8185C11.1852 8.26837 11.6352 9.03504 12.0727 9.71671C12.5268 10.4284 12.9802 11.0667 13.3335 11.545V19.1667H7.91683V15.8334H6.25016V19.1667H0.833496V2.50004ZM3.3335 11.25H10.8335V9.58337H3.3335V11.25ZM14.1668 5.41671V3.75004H15.8335V5.41671H14.1668Z" fill="#0047BA"/>
</svg>
