<svg width="20" height="20" viewBox="0 0 20 20" fill="none" xmlns="http://www.w3.org/2000/svg">
<path fill-rule="evenodd" clip-rule="evenodd" d="M10.1793 15.9458C10.1793 15.9458 16.191 11.4366 16.191 7.41579C16.1918 4.29663 13.9368 1.66663 10.1793 1.66663C6.421 1.66663 4.16684 4.29663 4.16684 7.41579C4.16684 11.4366 10.1793 15.9458 10.1793 15.9458ZM8.721 5.52246H11.6377V8.43913H8.721V5.52246ZM8.4235 16.125C7.66173 15.4699 6.93752 14.7724 6.25434 14.0358C6.06191 13.8272 5.87354 13.615 5.68934 13.3991H3.24434L0.819336 19.1925H19.1818L16.7568 13.3991H14.6685C14.481 13.62 14.2918 13.8325 14.1043 14.0358C13.4209 14.7725 12.6964 15.47 11.9343 16.125C11.3652 16.6158 10.7785 17.0583 10.1793 17.5083C9.57934 17.0583 8.99267 16.6158 8.4235 16.125Z" fill="#0047BA"/>
</svg>
