<svg width="65" height="64" viewBox="0 0 65 64" fill="none" xmlns="http://www.w3.org/2000/svg">
<path fill-rule="evenodd" clip-rule="evenodd" d="M0.75 0H64.75V52H57.75V48H60.75V4H4.75V48H9.75V52H0.75V0Z" fill="white"/>
<path fill-rule="evenodd" clip-rule="evenodd" d="M33.75 25C29.3317 25 25.75 28.5817 25.75 33C25.75 37.4183 29.3317 41 33.75 41C38.1683 41 41.75 37.4183 41.75 33C41.75 28.5817 38.1683 25 33.75 25ZM21.75 33C21.75 26.3726 27.1226 21 33.75 21C40.3774 21 45.75 26.3726 45.75 33C45.75 39.6274 40.3774 45 33.75 45C27.1226 45 21.75 39.6274 21.75 33Z" fill="white"/>
<path fill-rule="evenodd" clip-rule="evenodd" d="M14.75 48H52.75V64H14.75V48ZM18.75 52V60H48.75V52H18.75Z" fill="white"/>
</svg>
