<svg width="59" height="64" viewBox="0 0 59 64" fill="none" xmlns="http://www.w3.org/2000/svg">
<path fill-rule="evenodd" clip-rule="evenodd" d="M19.4023 39.3061V44.1312H15.4023V37.0609L16.2929 36.4671L17.4023 38.1312C16.2929 36.4671 16.2936 36.4667 16.2942 36.4663L16.2957 36.4653L16.2988 36.4632L16.3063 36.4583L16.3264 36.4451C16.3421 36.435 16.3622 36.4221 16.3867 36.4066C16.4358 36.3756 16.5026 36.3342 16.5867 36.2841C16.755 36.1839 16.9929 36.0482 17.2975 35.8893C17.9065 35.5716 18.784 35.1598 19.9064 34.7516C22.1513 33.9353 25.3832 33.1312 29.4023 33.1312C33.4214 33.1312 36.6533 33.9353 38.8983 34.7516C40.0207 35.1598 40.8982 35.5716 41.5072 35.8893C41.8118 36.0482 42.0497 36.1839 42.2179 36.2841C42.3021 36.3342 42.3689 36.3756 42.418 36.4066C42.4425 36.4221 42.4626 36.435 42.4783 36.4451L42.4984 36.4583L42.5059 36.4632L42.509 36.4653L42.5104 36.4663C42.5111 36.4667 42.5117 36.4671 41.4023 38.1312L42.5117 36.4671L43.4023 37.0609V44.1312H39.4023V39.3061C38.9432 39.0782 38.3151 38.7958 37.5314 38.5108C35.6513 37.8272 32.8832 37.1312 29.4023 37.1312C25.9214 37.1312 23.1533 37.8272 21.2733 38.5108C20.4896 38.7958 19.8615 39.0782 19.4023 39.3061ZM40.3002 39.8001C40.3011 39.8007 40.3014 39.8009 40.3002 39.8001V39.8001Z" fill="#0047BA"/>
<path fill-rule="evenodd" clip-rule="evenodd" d="M8.96191 48.1312H49.8411L46.3627 65.5235L42.4404 64.739L44.9619 52.1312H13.8411L16.3627 64.739L12.4404 65.5235L8.96191 48.1312Z" fill="#0047BA"/>
<path fill-rule="evenodd" clip-rule="evenodd" d="M23.2152 14.694C24.8561 13.0531 27.0817 12.1312 29.4023 12.1312C31.723 12.1312 33.9486 13.0531 35.5895 14.694C37.2305 16.335 38.1523 18.5606 38.1523 20.8812C38.1523 23.2019 37.2305 25.4275 35.5895 27.0684C33.9486 28.7094 31.723 29.6312 29.4023 29.6312C27.0817 29.6312 24.8561 28.7094 23.2152 27.0684C21.5742 25.4275 20.6523 23.2019 20.6523 20.8812C20.6523 18.5606 21.5742 16.335 23.2152 14.694ZM29.4023 16.1312C28.1426 16.1312 26.9344 16.6317 26.0436 17.5225C25.1528 18.4133 24.6523 19.6214 24.6523 20.8812C24.6523 22.141 25.1528 23.3492 26.0436 24.24C26.9344 25.1308 28.1426 25.6312 29.4023 25.6312C30.6621 25.6312 31.8703 25.1308 32.7611 24.24C33.6519 23.3492 34.1523 22.141 34.1523 20.8812C34.1523 19.6214 33.6519 18.4133 32.7611 17.5225C31.8703 16.6317 30.6621 16.1312 29.4023 16.1312Z" fill="#0047BA"/>
<path fill-rule="evenodd" clip-rule="evenodd" d="M0.402344 0.131226H58.4023V40.1312H48.9023V36.1312H54.4023V4.13123H4.40234V36.1312H9.90234V40.1312H0.402344V0.131226Z" fill="#0047BA"/>
</svg>
