<svg width="60" height="60" viewBox="0 0 60 60" fill="none" xmlns="http://www.w3.org/2000/svg">
<path fill-rule="evenodd" clip-rule="evenodd" d="M13.9188 16.7471L8.58545 11.4138L11.4139 8.58533L16.7472 13.9187L13.9188 16.7471Z" fill="#0047BA"/>
<path fill-rule="evenodd" clip-rule="evenodd" d="M51.4127 11.4138L46.0794 16.7471L43.251 13.9187L48.5843 8.58533L51.4127 11.4138Z" fill="#0047BA"/>
<path fill-rule="evenodd" clip-rule="evenodd" d="M46.0794 43.2526L51.4127 48.5859L48.5843 51.4143L43.251 46.081L46.0794 43.2526Z" fill="#0047BA"/>
<path fill-rule="evenodd" clip-rule="evenodd" d="M8.58545 48.5859L13.9188 43.2526L16.7472 46.081L11.4139 51.4143L8.58545 48.5859Z" fill="#0047BA"/>
<path fill-rule="evenodd" clip-rule="evenodd" d="M27.9976 8.66663V0.666626H31.9976V8.66663H27.9976Z" fill="#0047BA"/>
<path fill-rule="evenodd" clip-rule="evenodd" d="M27.9976 59.3339V51.3339H31.9976V59.3339H27.9976Z" fill="#0047BA"/>
<path fill-rule="evenodd" clip-rule="evenodd" d="M8.6665 32H0.666504V28H8.6665V32Z" fill="#0047BA"/>
<path fill-rule="evenodd" clip-rule="evenodd" d="M59.3354 31.9994H51.3354V27.9994H59.3354V31.9994Z" fill="#0047BA"/>
<path fill-rule="evenodd" clip-rule="evenodd" d="M25.6628 19.5293C27.0378 18.9598 28.5115 18.6666 29.9998 18.6666C31.4881 18.6666 32.9619 18.9598 34.3369 19.5293C35.7119 20.0989 36.9613 20.9337 38.0137 21.9861C39.0661 23.0385 39.9009 24.2879 40.4705 25.6629C41.04 27.0379 41.3332 28.5116 41.3332 30C41.3332 31.4883 41.04 32.962 40.4705 34.337C39.9009 35.7121 39.0661 36.9614 38.0137 38.0138C36.9613 39.0662 35.7119 39.901 34.3369 40.4706C32.9619 41.0401 31.4881 41.3333 29.9998 41.3333C28.5115 41.3333 27.0378 41.0401 25.6628 40.4706C24.2877 39.901 23.0384 39.0662 21.986 38.0138C20.9336 36.9614 20.0988 35.7121 19.5292 34.337C18.9596 32.962 18.6665 31.4883 18.6665 30C18.6665 28.5116 18.9596 27.0379 19.5292 25.6629C20.0988 24.2879 20.9336 23.0385 21.986 21.9861C23.0384 20.9337 24.2877 20.0989 25.6628 19.5293ZM29.9998 22.6666C29.0368 22.6666 28.0832 22.8563 27.1935 23.2248C26.3038 23.5934 25.4954 24.1335 24.8144 24.8145C24.1334 25.4955 23.5933 26.3039 23.2247 27.1936C22.8562 28.0833 22.6665 29.0369 22.6665 30C22.6665 30.963 22.8562 31.9166 23.2247 32.8063C23.5933 33.696 24.1334 34.5044 24.8144 35.1854C25.4954 35.8664 26.3038 36.4065 27.1935 36.7751C28.0832 37.1436 29.0368 37.3333 29.9998 37.3333C30.9629 37.3333 31.9165 37.1436 32.8062 36.7751C33.6959 36.4065 34.5043 35.8664 35.1853 35.1854C35.8662 34.5044 36.4064 33.696 36.775 32.8063C37.1435 31.9166 37.3332 30.963 37.3332 30C37.3332 29.0369 37.1435 28.0833 36.775 27.1936C36.4064 26.3039 35.8662 25.4955 35.1853 24.8145C34.5043 24.1335 33.6959 23.5934 32.8062 23.2248C31.9165 22.8563 30.9629 22.6666 29.9998 22.6666Z" fill="#0047BA"/>
</svg>
