<svg width="62" height="64" viewBox="0 0 62 64" fill="none" xmlns="http://www.w3.org/2000/svg">
<path fill-rule="evenodd" clip-rule="evenodd" d="M30.8769 4.86584L45.5109 30.6377L46.2311 27.8039C47.4059 23.1902 52.0955 20.3965 56.6818 21.6801L61.2439 22.8715L61.2935 39.6688L61.2928 39.698C61.0649 48.3737 56.4159 56.3153 48.9999 60.6687C48.9995 60.6689 48.9992 60.6691 48.9989 60.6693L45.0339 62.9997L43.007 59.5512L46.973 57.2202L46.974 57.2196C53.1753 53.5797 57.0918 46.9242 57.2934 39.6216L57.253 25.9634L55.6338 25.5405L55.6147 25.5351C53.2415 24.8647 50.7431 26.2945 50.1076 28.79L47.9579 37.2495L45.6813 38.583C45.681 38.5832 45.6807 38.5834 45.6804 38.5835C41.9985 40.7467 40.7125 45.5626 42.8583 49.3403C42.8582 49.3402 42.8583 49.3404 42.8583 49.3403L43.8598 51.1004L40.3831 53.0786L39.3805 51.3163C36.1962 45.7109 38.0302 38.543 43.5126 35.2193L29.402 10.3691L26.8026 11.8943C25.7644 12.5161 25.0103 13.5194 24.7018 14.6898C24.3927 15.8625 24.5553 17.1095 25.1549 18.1637L32.8925 31.7846L32.8897 31.7862L33.6215 33.0747L30.1434 35.0502L16.5205 11.0655L13.9171 12.5941C11.7807 13.8478 11.0238 16.654 12.2766 18.8608C12.2765 18.8607 12.2766 18.8609 12.2766 18.8608L22.9356 37.6288L23.6676 38.9188L20.1894 40.8942L9.49141 22.0575L6.88814 23.5861C4.7518 24.8398 3.99439 27.6465 5.24513 29.8538C5.24504 29.8536 5.24522 29.854 5.24513 29.8538L22.7105 60.5996L19.2324 62.5753L1.7655 31.8267C-0.547279 27.7462 0.813631 22.5132 4.86276 20.1368C4.86261 20.1369 4.86292 20.1367 4.86276 20.1368L7.86127 18.3761C7.10593 14.8433 8.62313 11.0632 11.8918 9.14481C11.8916 9.1449 11.8919 9.14471 11.8918 9.14481L17.9944 5.56143L21.5538 11.828C22.2877 10.4431 23.3911 9.27224 24.7584 8.45614L24.7648 8.4523L30.8769 4.86584Z" fill="white"/>
<path fill-rule="evenodd" clip-rule="evenodd" d="M35.9851 -0.344482C37.9298 0.176399 39.7529 1.07526 41.3502 2.30077C42.9475 3.52629 44.2877 5.05444 45.2943 6.79797C46.301 8.5415 46.9543 10.4662 47.217 12.4623C47.4797 14.4583 47.3467 16.4866 46.8255 18.4312L42.9618 17.3956C43.3471 15.9584 43.4454 14.4594 43.2512 12.9843C43.0571 11.5091 42.5742 10.0866 41.8303 8.798C41.0863 7.50943 40.0958 6.38004 38.9153 5.47432C37.7348 4.56859 36.3874 3.90428 34.9502 3.51932L35.9851 -0.344482Z" fill="white"/>
<path fill-rule="evenodd" clip-rule="evenodd" d="M0.775601 50.7126C0.51289 48.7165 0.645948 46.6883 1.16718 44.7437L5.0308 45.7792C4.64558 47.2164 4.54724 48.7154 4.7414 50.1906C4.93556 51.6658 5.41841 53.0883 6.16238 54.3769C6.90635 55.6654 7.89686 56.7948 9.07735 57.7006C10.2578 58.6063 11.6052 59.2706 13.0424 59.6555L12.0075 63.5193C10.0628 62.9985 8.23976 62.0996 6.64247 60.8741C5.04518 59.6486 3.70494 58.1204 2.69829 56.3769C1.69165 54.6334 1.03831 52.7086 0.775601 50.7126Z" fill="white"/>
</svg>
